<svg width="150" height="150" viewBox="0 0 150 150" fill="none" xmlns="http://www.w3.org/2000/svg">
<mask id="mask0_4059_3204" style="mask-type:alpha" maskUnits="userSpaceOnUse" x="11" y="0" width="128" height="150">
<rect x="11" width="128" height="150" fill="url(#paint0_linear_4059_3204)"/>
</mask>
<g mask="url(#mask0_4059_3204)">
<rect x="21.25" y="11.25" width="106.5" height="38.5" rx="9.75" fill="white"/>
<rect x="21.25" y="11.25" width="106.5" height="38.5" rx="9.75" stroke="#DAE5FD" stroke-width="0.5"/>
<path d="M47.9933 25.8208C47.8983 24.2658 46.7575 22.9233 45.1558 22.715C43.4267 22.4908 41.6642 22.375 39.875 22.375C38.0858 22.375 36.3233 22.49 34.5942 22.715C32.9208 22.9325 31.75 24.39 31.75 26.0317V31.2183C31.75 32.8608 32.9208 34.3167 34.5942 34.535C34.8957 34.574 35.1977 34.6095 35.5 34.6417V38C35.5001 38.1235 35.5368 38.2443 35.6055 38.3469C35.6742 38.4496 35.7718 38.5296 35.8859 38.5769C36 38.6242 36.1256 38.6365 36.2468 38.6125C36.3679 38.5884 36.4793 38.529 36.5667 38.4417L38.7775 36.2317" stroke="#DAE5FD" stroke-width="0.5"/>
<path d="M43.625 27C44.7543 26.9996 45.8833 27.0456 47.0088 27.1387C48.155 27.2347 48.9999 28.2089 49 29.3398V32.9121C48.9998 33.9737 48.2557 34.8969 47.2168 35.085L47.0049 35.1123L46.7305 35.1338L46.5 35.1523V37.375L46.4961 37.4297C46.488 37.4843 46.4675 37.5367 46.4365 37.583C46.3953 37.6445 46.3369 37.6924 46.2686 37.7207C46.2001 37.7491 46.1245 37.7566 46.0518 37.7422C45.9792 37.7277 45.9127 37.6919 45.8604 37.6396L43.542 35.3223L43.4688 35.25L43.3662 35.249C42.3159 35.2424 41.2744 35.1968 40.2451 35.1123C39.0969 35.0183 38.2502 34.0443 38.25 32.9121V29.3408C38.25 28.2089 39.0937 27.2352 40.2402 27.1396C41.3558 27.0469 42.4852 27 43.625 27Z" stroke="#DAE5FD" stroke-width="0.5"/>
<rect x="54.75" y="21.75" width="63.5" height="6.5" rx="3.25" stroke="#DAE5FD" stroke-width="0.5"/>
<rect x="54.75" y="32.75" width="38.5" height="6.5" rx="3.25" stroke="#DAE5FD" stroke-width="0.5"/>
<g filter="url(#filter0_d_4059_3204)">
<g clip-path="url(#clip0_4059_3204)">
<rect x="21" y="56" width="107" height="38" rx="10" fill="white"/>
<path d="M34.0942 67.215C35.8233 66.99 37.5858 66.875 39.375 66.875C41.1642 66.875 42.9267 66.9908 44.6558 67.215C46.2575 67.4233 47.3983 68.7658 47.4933 70.3208C47.2147 70.228 46.926 70.169 46.6333 70.145C44.2985 69.9512 41.9515 69.9512 39.6167 70.145C37.6517 70.3083 36.25 71.97 36.25 73.84V77.4117C36.2492 78.0981 36.4381 78.7715 36.7959 79.3574C37.1537 79.9432 37.6664 80.4188 38.2775 80.7317L36.0667 82.9417C35.9793 83.029 35.8679 83.0884 35.7468 83.1125C35.6256 83.1365 35.5 83.1242 35.3859 83.0769C35.2718 83.0296 35.1742 82.9496 35.1055 82.8469C35.0368 82.7443 35.0001 82.6235 35 82.5V79.1417C34.6977 79.1095 34.3957 79.074 34.0942 79.035C32.4208 78.8167 31.25 77.3608 31.25 75.7183V70.5317C31.25 68.89 32.4208 67.4325 34.0942 67.215Z" fill="#F7F7F7"/>
<path d="M43.125 71.25C41.9783 71.25 40.8425 71.2975 39.72 71.3908C38.4367 71.4975 37.5 72.5858 37.5 73.8408V77.4117C37.5 78.6675 38.44 79.7567 39.725 79.8617C40.7608 79.9467 41.8083 79.9925 42.865 79.9992L45.1833 82.3167C45.2707 82.404 45.3821 82.4634 45.5032 82.4875C45.6244 82.5115 45.75 82.4992 45.8641 82.4519C45.9782 82.4046 46.0758 82.3246 46.1445 82.2219C46.2132 82.1193 46.2499 81.9985 46.25 81.875V79.8833L46.525 79.8617C47.81 79.7575 48.75 78.6675 48.75 77.4117V73.84C48.75 72.5858 47.8125 71.4975 46.53 71.39C45.3974 71.2963 44.2614 71.2496 43.125 71.25Z" fill="#F7F7F7"/>
<rect x="54" y="66" width="64" height="7" rx="3.5" fill="#F7F7F7"/>
<rect x="54" y="77" width="39" height="7" rx="3.5" fill="#F7F7F7"/>
<path d="M31.3974 94.5388L20.5019 83.6414C20.4697 86.7362 20.823 88.7696 23.3851 91.6542C26.5896 94.5388 28.0993 94.516 31.3974 94.5388Z" fill="url(#paint1_linear_4059_3204)"/>
<path d="M31.3974 94.5388L20.5019 83.6414C20.4697 86.7362 20.823 88.7696 23.3851 91.6542C26.5896 94.5388 28.0993 94.516 31.3974 94.5388Z" fill="black" fill-opacity="0.08"/>
<g filter="url(#filter1_d_4059_3204)">
<path d="M31.3974 93.8974C31.5094 94.2349 31.6388 94.3894 32.0385 94.5385H31.3974L20.5 83.641V83C20.5647 83.4009 20.5324 83.5238 21.141 83.641L27.9924 83.2128C29.8376 83.0975 31.3974 84.5629 31.3974 86.4117V93.8974Z" fill="url(#paint2_linear_4059_3204)"/>
</g>
</g>
<rect x="20.2308" y="55.2308" width="108.538" height="39.5385" rx="10.7692" stroke="#E6E6E6" stroke-width="1.53846"/>
</g>
<rect x="21.25" y="100.25" width="106.5" height="38.5" rx="9.75" fill="white"/>
<rect x="21.25" y="100.25" width="106.5" height="38.5" rx="9.75" stroke="#DAE5FD" stroke-width="0.5"/>
<path d="M47.9933 114.821C47.8983 113.266 46.7575 111.923 45.1558 111.715C43.4267 111.491 41.6642 111.375 39.875 111.375C38.0858 111.375 36.3233 111.49 34.5942 111.715C32.9208 111.933 31.75 113.39 31.75 115.032V120.218C31.75 121.861 32.9208 123.317 34.5942 123.535C34.8957 123.574 35.1977 123.61 35.5 123.642V127C35.5001 127.124 35.5368 127.244 35.6055 127.347C35.6742 127.45 35.7718 127.53 35.8859 127.577C36 127.624 36.1256 127.637 36.2468 127.612C36.3679 127.588 36.4793 127.529 36.5667 127.442L38.7775 125.232" stroke="#DAE5FD" stroke-width="0.5"/>
<path d="M43.625 116C44.7543 116 45.8833 116.046 47.0088 116.139C48.155 116.235 48.9999 117.209 49 118.34V121.912C48.9998 122.974 48.2557 123.897 47.2168 124.085L47.0049 124.112L46.7305 124.134L46.5 124.152V126.375L46.4961 126.43C46.488 126.484 46.4675 126.537 46.4365 126.583C46.3953 126.645 46.3369 126.692 46.2686 126.721C46.2001 126.749 46.1245 126.757 46.0518 126.742C45.9792 126.728 45.9127 126.692 45.8604 126.64L43.542 124.322L43.4688 124.25L43.3662 124.249C42.3159 124.242 41.2744 124.197 40.2451 124.112C39.0969 124.018 38.2502 123.044 38.25 121.912V118.341C38.25 117.209 39.0937 116.235 40.2402 116.14C41.3558 116.047 42.4852 116 43.625 116Z" stroke="#DAE5FD" stroke-width="0.5"/>
<rect x="54.75" y="110.75" width="63.5" height="6.5" rx="3.25" stroke="#DAE5FD" stroke-width="0.5"/>
<rect x="54.75" y="121.75" width="38.5" height="6.5" rx="3.25" stroke="#DAE5FD" stroke-width="0.5"/>
</g>
<defs>
<filter id="filter0_d_4059_3204" x="16.3846" y="52.1537" width="116.231" height="47.231" filterUnits="userSpaceOnUse" color-interpolation-filters="sRGB">
<feFlood flood-opacity="0" result="BackgroundImageFix"/>
<feColorMatrix in="SourceAlpha" type="matrix" values="0 0 0 0 0 0 0 0 0 0 0 0 0 0 0 0 0 0 127 0" result="hardAlpha"/>
<feOffset dy="0.769231"/>
<feGaussianBlur stdDeviation="1.53846"/>
<feColorMatrix type="matrix" values="0 0 0 0 0 0 0 0 0 0 0 0 0 0 0 0 0 0 0.08 0"/>
<feBlend mode="normal" in2="BackgroundImageFix" result="effect1_dropShadow_4059_3204"/>
<feBlend mode="normal" in="SourceGraphic" in2="effect1_dropShadow_4059_3204" result="shape"/>
</filter>
<filter id="filter1_d_4059_3204" x="16.6538" y="77.2308" width="21.7949" height="21.795" filterUnits="userSpaceOnUse" color-interpolation-filters="sRGB">
<feFlood flood-opacity="0" result="BackgroundImageFix"/>
<feColorMatrix in="SourceAlpha" type="matrix" values="0 0 0 0 0 0 0 0 0 0 0 0 0 0 0 0 0 0 127 0" result="hardAlpha"/>
<feOffset dx="1.28205" dy="-0.641026"/>
<feGaussianBlur stdDeviation="2.5641"/>
<feComposite in2="hardAlpha" operator="out"/>
<feColorMatrix type="matrix" values="0 0 0 0 0 0 0 0 0 0 0 0 0 0 0 0 0 0 0.04 0"/>
<feBlend mode="normal" in2="BackgroundImageFix" result="effect1_dropShadow_4059_3204"/>
<feBlend mode="normal" in="SourceGraphic" in2="effect1_dropShadow_4059_3204" result="shape"/>
</filter>
<linearGradient id="paint0_linear_4059_3204" x1="75" y1="0" x2="75" y2="150" gradientUnits="userSpaceOnUse">
<stop offset="0.0480598" stop-color="white" stop-opacity="0"/>
<stop offset="0.348055" stop-color="white"/>
<stop offset="0.649208" stop-color="white"/>
<stop offset="0.931962" stop-color="white" stop-opacity="0"/>
</linearGradient>
<linearGradient id="paint1_linear_4059_3204" x1="23.0641" y1="91.0132" x2="25.6282" y2="88.7696" gradientUnits="userSpaceOnUse">
<stop offset="0.221633" stop-color="#DBDBDB"/>
<stop offset="1" stop-color="#C9C9C9"/>
</linearGradient>
<linearGradient id="paint2_linear_4059_3204" x1="30.4359" y1="84.2821" x2="25.9487" y2="89.0897" gradientUnits="userSpaceOnUse">
<stop stop-color="#DEDEDE"/>
<stop offset="1" stop-color="#D3D0D0"/>
</linearGradient>
<clipPath id="clip0_4059_3204">
<rect x="21" y="56" width="107" height="38" rx="10" fill="white"/>
</clipPath>
</defs>
</svg>
